<?xml version="1.0" encoding="UTF-8"?>
<svg id="Capa_1" data-name="Capa 1" xmlns="http://www.w3.org/2000/svg" viewBox="0 0 1024 1024">
  <defs>
    <style>
      .cls-1 {
        fill: #fff;
      }
    </style>
  </defs>
  <path class="cls-1" d="M236.01,552.18c13.58-4.59,25.1-12.55,31.96-25.24s8.36-29.59,2.53-43.53c-16.1-38.5-90.08-23.26-88.24-52.72.35-5.57,3.74-10.59,9.48-12.92,18.4-7.45,43.84-.11,60.85,9.6l19.91-28.5c-29.67-16.77-68.69-23.45-100.34-10.68-15.84,6.39-25.63,20.84-27.5,37.68-2.34,21.13,5.13,39.93,25.06,49.35,21.07,9.96,38.06,8.89,54.6,16.45,4.78,2.18,8.62,6.33,9.39,10.22,1.12,5.62-.4,10.84-4.19,14.79-16.04,16.68-53.7,2.49-72-9.22l-17.75,29.76c29.6,17.39,63.19,26.13,96.25,14.96ZM575.66,553.88l-.2-169.72-39.43-.07-.05,169.96,39.67-.16ZM730.83,521h-75.83s0-136.88,0-136.88l-37.99.03v169.95s113.92.07,113.92.07l-.09-33.18ZM869.92,485.97l-.12-33.69-69.64.04.12-35.31h77.74s-.08-32.89-.08-32.89h-115.93s0,170.07,0,170.07l116.56.04.08-33.17-78.55-.09.18-34.94,69.64-.05ZM454.05,554.02l37.95-.06v-169s-41.31.14-41.31.14l-52,86.62-51.59-86.73-42.13.03-.06,168.97,37.05-.09.14-111.34,56.14,90.69,55.71-88.68.08,109.45ZM732.37,601.02c-3.33-1.7-6.55-1.32-9.65-.21-42.23,15.15-85.12,26.4-129.71,33.2-99.54,15.17-194.31.93-288.2-32.55-3.74-1.33-7.11-2.87-11.08-.14,12.05,7.52,23.23,13.25,35.33,19.67,49.77,26.41,103.5,42.97,159.79,48.09,20.7,1.88,39.67,1.4,60.26-1.08,67.13-8.08,125.38-32.07,183.26-66.98Z"/>
  <polygon class="cls-1" points="454.05 554.02 453.97 444.57 398.26 533.25 342.11 442.56 341.97 553.9 304.92 554 304.98 385.03 347.11 385 398.69 471.73 450.69 385.11 492 384.96 492 553.96 454.05 554.02"/>
  <polygon class="cls-1" points="869.92 485.97 800.28 486.02 800.1 520.95 878.65 521.04 878.56 554.21 762 554.17 762 384.11 877.93 384.11 878.01 417 800.27 417 800.16 452.31 869.8 452.27 869.92 485.97"/>
  <path class="cls-1" d="M236.01,552.18c-33.06,11.17-66.65,2.43-96.25-14.96l17.75-29.76c18.3,11.72,55.96,25.91,72,9.22,3.79-3.94,5.31-9.17,4.19-14.79-.78-3.89-4.61-8.03-9.39-10.22-16.54-7.56-33.53-6.48-54.6-16.45-19.93-9.43-27.4-28.22-25.06-49.35,1.87-16.84,11.66-31.29,27.5-37.68,31.65-12.77,70.67-6.09,100.34,10.68l-19.91,28.5c-17.01-9.72-42.45-17.06-60.85-9.6-5.74,2.32-9.13,7.35-9.48,12.92-1.84,29.46,72.14,14.22,88.24,52.72,5.83,13.95,4.64,30.28-2.53,43.53s-18.38,20.65-31.96,25.24Z"/>
  <path class="cls-1" d="M732.37,601.02c-57.88,34.91-116.13,58.91-183.26,66.98-20.59,2.48-39.57,2.96-60.26,1.08-56.29-5.12-110.03-21.67-159.79-48.09-12.09-6.42-23.28-12.16-35.33-19.67,3.97-2.73,7.34-1.2,11.08.14,93.89,33.48,188.67,47.72,288.2,32.55,44.59-6.8,87.48-18.05,129.71-33.2,3.1-1.11,6.31-1.48,9.65.21Z"/>
  <polygon class="cls-1" points="730.83 521 730.92 554.18 617 554.11 617.01 384.15 655 384.12 655 520.99 730.83 521"/>
  <polygon class="cls-1" points="575.66 553.88 535.98 554.04 536.03 384.09 575.46 384.16 575.66 553.88"/>
</svg>